<svg width="17" height="17" viewBox="0 0 17 17" fill="none" xmlns="http://www.w3.org/2000/svg">
<path d="M8.50121 0C6.07262 0 4.08737 1.98525 4.08737 4.41384C4.08737 6.84243 6.07262 8.82768 8.50121 8.82768C10.9298 8.82768 12.9151 6.84243 12.9151 4.41384C12.9151 1.98525 10.9298 0 8.50121 0Z" fill="#7D7D7D"/>
<path d="M16.0761 12.3549C15.9604 12.0658 15.8062 11.7959 15.6328 11.5454C14.7461 10.2347 13.3777 9.36735 11.8357 9.15533C11.643 9.13607 11.431 9.17459 11.2768 9.29024C10.4673 9.88775 9.50356 10.1961 8.50126 10.1961C7.49897 10.1961 6.53527 9.88775 5.72574 9.29024C5.57153 9.17459 5.35951 9.11678 5.16678 9.15533C3.62483 9.36735 2.23709 10.2347 1.36975 11.5454C1.19628 11.7959 1.04207 12.0851 0.926451 12.3549C0.868641 12.4706 0.887898 12.6055 0.945709 12.7211C1.09992 12.991 1.29264 13.2608 1.46611 13.4921C1.73594 13.8583 2.02507 14.186 2.35275 14.4944C2.62258 14.7642 2.93096 15.0148 3.23938 15.2653C4.76204 16.4025 6.59312 17 8.48201 17C10.3709 17 12.202 16.4025 13.7246 15.2653C14.033 15.0341 14.3414 14.7642 14.6113 14.4944C14.9196 14.186 15.228 13.8583 15.4979 13.4921C15.6906 13.2415 15.8641 12.991 16.0183 12.7211C16.1146 12.6055 16.1339 12.4705 16.0761 12.3549Z" fill="#7D7D7D"/>
</svg>
