<svg width="27" height="26" viewBox="0 0 27 26" fill="none" xmlns="http://www.w3.org/2000/svg">
<path d="M13.5012 5C11.0727 5 9.0874 6.98525 9.0874 9.41384C9.0874 11.8424 11.0727 13.8277 13.5012 13.8277C15.9298 13.8277 17.9151 11.8424 17.9151 9.41384C17.9151 6.98525 15.9298 5 13.5012 5Z" fill="#03A9F4"/>
<path d="M21.0761 17.3549C20.9605 17.0658 20.8063 16.7959 20.6328 16.5454C19.7462 15.2347 18.3778 14.3673 16.8358 14.1553C16.6431 14.1361 16.4311 14.1746 16.2768 14.2902C15.4673 14.8878 14.5036 15.1961 13.5013 15.1961C12.499 15.1961 11.5353 14.8878 10.7258 14.2902C10.5716 14.1746 10.3596 14.1168 10.1668 14.1553C8.62489 14.3673 7.23715 15.2347 6.36981 16.5454C6.19634 16.7959 6.04213 17.0851 5.92651 17.3549C5.8687 17.4706 5.88796 17.6055 5.94577 17.7211C6.09998 17.991 6.29271 18.2608 6.46617 18.4921C6.736 18.8583 7.02513 19.186 7.35281 19.4944C7.62264 19.7642 7.93102 20.0148 8.23944 20.2653C9.7621 21.4025 11.5932 22 13.4821 22C15.371 22 17.202 21.4025 18.7247 20.2653C19.0331 20.0341 19.3415 19.7642 19.6113 19.4944C19.9197 19.186 20.2281 18.8583 20.498 18.4921C20.6907 18.2415 20.8642 17.991 21.0184 17.7211C21.1147 17.6055 21.1339 17.4705 21.0761 17.3549Z" fill="#03A9F4"/>
</svg>
