<svg width="14" height="26" viewBox="0 0 14 26" fill="none" xmlns="http://www.w3.org/2000/svg">
<path d="M11.2 5.03604H13.4556C13.7278 5.03604 14 4.8018 14 4.48949V0.546547C14 0.273273 13.7667 0 13.4556 0H10.1111C6.33889 0 3.88889 2.4985 3.88889 6.4024V9.33033H0.544444C0.272222 9.33033 0 9.56456 0 9.87688V14.1321C0 14.4054 0.233333 14.6787 0.544444 14.6787H3.88889V25.4535C3.88889 25.7267 4.12222 26 4.43333 26H8.82778C9.1 26 9.37222 25.7658 9.37222 25.4535V14.6396H13.3C13.5722 14.6396 13.8444 14.4054 13.8444 14.0931V9.83784C13.8444 9.68168 13.8056 9.56456 13.6889 9.44745C13.5722 9.33033 13.4556 9.29129 13.3 9.29129H9.33333V6.79279C9.33333 5.62162 9.64444 5.03604 11.2 5.03604Z" fill="#03A9F4"/>
</svg>
