<svg width="26" height="26" viewBox="0 0 26 26" fill="none" xmlns="http://www.w3.org/2000/svg">
<path d="M19.1093 24.0145C16.5407 24.0145 12.9447 22.7302 8.06445 17.8499C1.98549 11.771 1.5574 7.57565 2.24235 5.09269C2.41359 4.32212 2.9273 3.72279 3.61225 3.29469L5.41025 2.26726C6.18083 1.75355 7.20825 2.01041 7.72197 2.78098L10.5474 7.06193C11.0611 7.8325 10.8899 8.85993 10.2049 9.37365L8.57816 10.5723L8.66378 10.8292C9.09188 11.5997 9.60559 12.5416 11.4892 14.4252C13.3728 16.3088 14.3146 16.8225 15.0852 17.2506L15.3421 17.4218L16.6264 15.7951C17.2257 15.1101 18.2531 14.9389 18.9381 15.4526L23.219 18.278C23.9896 18.7917 24.2465 19.8192 23.7327 20.5897L22.7053 22.3877C22.2772 23.0727 21.6779 23.5008 20.9073 23.7577C20.3936 23.9289 19.7943 24.0145 19.1093 24.0145ZM6.26645 3.72279L4.46844 4.83584C4.21159 5.00708 3.95473 5.26393 3.86911 5.60641C3.44102 7.23317 3.52663 10.9148 9.34873 16.7369C15.1708 22.559 18.7668 22.6446 20.4792 22.2165C20.8217 22.1309 21.0785 21.874 21.2498 21.6172L22.3628 19.8192L18.0819 16.9937L16.7976 18.6205C16.2839 19.3055 15.3421 19.4767 14.5715 19.0486L14.3146 18.963C13.4584 18.5349 12.431 17.9356 10.2905 15.8807C8.23568 13.8258 7.63635 12.7128 7.20825 11.8566L7.12264 11.5997C6.69454 10.8292 6.86578 9.88736 7.55073 9.37365L9.09188 8.00374L6.26645 3.72279Z" fill="#7D7D7D"/>
</svg>
