<svg width="74" height="6" viewBox="0 0 74 6" fill="none" xmlns="http://www.w3.org/2000/svg">
<path d="M74 5C71.207 5 68.558 3.85714 66.7152 1.84354C66.2257 1.29932 65.5058 1 64.7572 1C64.0086 1 63.2887 1.29932 62.7992 1.84354C60.9564 3.85714 58.3074 5 55.5144 5C52.7214 5 50.0436 3.85714 48.2008 1.84354C47.7113 1.29932 46.9914 1 46.2428 1C45.4942 1 44.7743 1.29932 44.2848 1.84354C42.442 3.85714 39.793 5 37 5C34.207 5 31.5292 3.85714 29.7152 1.84354C29.2257 1.29932 28.5058 1 27.7572 1C27.0086 1 26.2887 1.29932 25.7992 1.84354C23.9564 3.85714 21.3074 5 18.4856 5C15.6638 5 13.0436 3.85714 11.2008 1.84354C10.7113 1.29932 9.99144 1 9.2428 1C8.49416 1 7.77432 1.29932 7.28482 1.84354C5.44202 3.85714 2.793 5 0 5" stroke="#00C2ED" stroke-width="2" stroke-miterlimit="10"/>
</svg>
