<svg width="15" height="21" viewBox="0 0 15 21" fill="none" xmlns="http://www.w3.org/2000/svg">
<path d="M13.7761 3.48653C12.5404 1.35415 10.3457 0.0513968 7.90511 0.0016105C7.80093 -0.000536833 7.69607 -0.000536833 7.59184 0.0016105C5.15128 0.0513968 2.95655 1.35415 1.72088 3.48653C0.457853 5.66615 0.423297 8.2843 1.62843 10.4901L6.67716 19.7311C6.67942 19.7352 6.68169 19.7393 6.68404 19.7433C6.90617 20.1294 7.3041 20.3599 7.74856 20.3599C8.19297 20.3599 8.59091 20.1294 8.81299 19.7433C8.81534 19.7393 8.81761 19.7352 8.81987 19.7311L13.8686 10.4901C15.0737 8.2843 15.0391 5.66615 13.7761 3.48653ZM7.74848 9.22559C6.16975 9.22559 4.88537 7.94121 4.88537 6.36248C4.88537 4.78376 6.16975 3.49937 7.74848 3.49937C9.3272 3.49937 10.6116 4.78376 10.6116 6.36248C10.6116 7.94121 9.32724 9.22559 7.74848 9.22559Z" fill="#7D7D7D"/>
</svg>
