<svg width="15" height="15" viewBox="0 0 15 15" fill="none" xmlns="http://www.w3.org/2000/svg">
<path d="M13.7733 1.84105C12.9975 1.00711 11.9103 0.532608 10.7712 0.530849C9.63129 0.532168 8.54298 1.00642 7.76593 1.84051L7.5011 2.12036L7.23627 1.84051C5.69438 0.18102 3.09914 0.0857183 1.43965 1.62761C1.36611 1.69596 1.29509 1.76695 1.22674 1.84051C-0.408913 3.60477 -0.408913 6.33134 1.22674 8.09559L7.11191 14.3019C7.31552 14.5168 7.65483 14.526 7.86978 14.3224C7.87681 14.3158 7.88366 14.3089 7.89032 14.3019L13.7734 8.09559C15.4089 6.33152 15.4089 3.60511 13.7733 1.84105Z" fill="#7D7D7D"/>
</svg>
