<svg width="26" height="26" viewBox="0 0 26 26" fill="none" xmlns="http://www.w3.org/2000/svg">
<path d="M14.4101 14.3328C13.9851 14.101 13.4056 14.101 12.942 14.101H11.3967V17.2689H12.8261C13.367 17.2689 14.0238 17.3076 14.4874 16.9985C14.9123 16.7281 15.1441 16.1872 15.1441 15.6464C15.1055 15.1441 14.7964 14.5646 14.4101 14.3328ZM13.792 11.5899C14.1397 11.3195 14.3328 10.8559 14.3328 10.4309C14.3328 9.96731 14.101 9.50371 13.7147 9.27192C13.2897 9.04012 12.5557 9.07875 12.0535 9.07875H11.3967V11.899H12.2853C12.7875 11.899 13.367 11.9376 13.792 11.5899ZM21.4027 0H4.55869C2.04755 0 0 2.04755 0 4.55869V21.4027C0 23.9525 2.04755 26 4.55869 26H21.4027C23.9138 26 25.9614 23.9525 25.9614 21.4413V4.55869C26 2.04755 23.9524 0 21.4027 0ZM13.7147 19.6256H8.38336V6.83804H14.1783C15.8395 6.83804 17.4235 7.91976 17.4235 9.81278C17.4235 11.2808 16.6122 12.2853 15.5691 12.5944V12.633C17.1144 12.9421 18.1961 13.792 18.1961 15.8009C18.1961 17.6166 16.9212 19.6256 13.7147 19.6256Z" fill="#03A9F4"/>
</svg>
