<svg width="21" height="19" viewBox="0 0 21 19" fill="none" xmlns="http://www.w3.org/2000/svg">
<path d="M16.6273 13.8229C15.1835 13.8229 14.0088 14.9841 14.0088 16.4115C14.0088 17.8388 15.1835 19 16.6273 19C18.0711 19 19.2458 17.8388 19.2458 16.4115C19.2458 14.9841 18.0711 13.8229 16.6273 13.8229ZM16.6273 17.4469C16.0497 17.4469 15.5799 16.9825 15.5799 16.4115C15.5799 15.8404 16.0497 15.376 16.6273 15.376C17.2049 15.376 17.6747 15.8404 17.6747 16.4115C17.6747 16.9825 17.2049 17.4469 16.6273 17.4469Z" fill="#7D7D7D"/>
<path d="M20.8331 3.81835C20.6843 3.63017 20.4563 3.52041 20.2146 3.52041H4.8489L4.14191 0.596129C4.05733 0.246691 3.74126 3.54648e-09 3.37782 3.54648e-09H0.785536C0.35167 -4.05439e-05 0 0.347613 0 0.776524C0 1.20544 0.35167 1.55309 0.785536 1.55309H2.75778L5.31078 12.1134C5.39535 12.4631 5.71142 12.7095 6.07486 12.7095H18.3031C18.6642 12.7095 18.9789 12.4662 19.0656 12.1198L20.9771 4.48357C21.035 4.25168 20.9818 4.00653 20.8331 3.81835ZM17.6885 11.1564H6.6949L5.22436 5.07354H19.2109L17.6885 11.1564Z" fill="#7D7D7D"/>
<path d="M7.12225 13.8229C5.67841 13.8229 4.50379 14.9841 4.50379 16.4115C4.50379 17.8388 5.67845 19 7.12225 19C8.56605 19 9.7407 17.8388 9.7407 16.4115C9.7407 14.9841 8.56605 13.8229 7.12225 13.8229ZM7.12225 17.4469C6.54462 17.4469 6.07487 16.9825 6.07487 16.4115C6.07487 15.8404 6.54462 15.376 7.12225 15.376C7.69987 15.376 8.16963 15.8404 8.16963 16.4115C8.16963 16.9825 7.69987 17.4469 7.12225 17.4469Z" fill="#7D7D7D"/>
</svg>
