<svg width="26" height="26" viewBox="0 0 26 26" fill="none" xmlns="http://www.w3.org/2000/svg">
<path d="M12.9805 6.49048C9.40503 6.49048 6.49023 9.40528 6.49023 12.9808C6.49023 16.5562 9.40503 19.471 12.9805 19.471C16.556 19.471 19.4708 16.5562 19.4708 12.9808C19.4708 9.40528 16.556 6.49048 12.9805 6.49048ZM12.9805 17.0226C10.7264 17.0226 8.93866 15.196 8.93866 12.9808C8.93866 10.7655 10.7653 8.93891 12.9805 8.93891C15.1958 8.93891 17.0224 10.7655 17.0224 12.9808C17.0224 15.2349 15.2346 17.0226 12.9805 17.0226Z" fill="#03A9F4"/>
<path d="M19.9761 6.87896C20.4425 6.87896 20.8311 6.49032 20.8311 6.02395C20.8311 5.55758 20.4425 5.16895 19.9761 5.16895C19.5098 5.16895 19.1211 5.55758 19.1211 6.02395C19.0823 6.49032 19.4709 6.87896 19.9761 6.87896Z" fill="#03A9F4"/>
<path d="M8.12257 0C3.65321 0 0 3.65321 0 8.12257V17.8774C0 22.3468 3.65321 26 8.12257 26H17.8774C22.3468 26 26 22.3468 26 17.8774V8.12257C25.9611 3.65321 22.3468 0 17.8386 0H8.12257ZM23.5516 8.12257V17.8774C23.5516 21.0254 20.9865 23.5516 17.8774 23.5516H8.12257C4.97459 23.5516 2.44843 20.9865 2.44843 17.8774V8.12257C2.44843 4.97459 5.01345 2.44843 8.12257 2.44843H17.8774C20.9865 2.44843 23.5516 4.97459 23.5516 8.12257Z" fill="#03A9F4"/>
</svg>
