<svg width="176" height="173" viewBox="0 0 176 173" fill="none" xmlns="http://www.w3.org/2000/svg">
<path d="M73.2326 168.051L73.2274 168.049C54.4839 159.992 35.4091 145.436 22.2311 129.112L22.2307 129.112C10.4213 114.529 -2.63656 91.0978 1.6686 62.4256C5.60999 36.2873 25.8635 20.7858 48.7279 11.9024C71.5876 3.0208 96.9353 0.809256 110.789 1.1887L110.79 1.18871C129.522 1.68181 154.313 6.65272 166.871 27.3147C178.831 47.0023 177.179 76.9949 161.614 116.725C152.304 140.397 136.128 158.824 117.189 167.317C107.239 171.726 97.0677 173.244 87.2713 171.961C82.5208 171.34 77.7959 170.073 73.2326 168.051Z" stroke="#03A9F4"/>
</svg>
