<svg width="42" height="42" viewBox="0 0 42 42" fill="none" xmlns="http://www.w3.org/2000/svg">
<path d="M21.0001 1.71948C31.6475 1.71948 40.2806 10.3526 40.2806 21.0001C40.2806 31.6475 31.6475 40.2806 21.0001 40.2806C10.3526 40.2806 1.71948 31.6475 1.71948 21.0001C1.71948 15.3885 4.09358 10.3526 7.90653 6.89934M4.23747 6.10798L8.84178 6.46769L8.26624 10.7842M29.4893 16.036H34.8849L30.8562 25.9641M25.6044 16.036L21.5037 25.9641M18.9137 21.8634H13.59L14.9569 16.036M18.0504 18.0504V25.9641M6.89934 18.4821C6.97128 17.9065 7.18711 17.2591 7.61876 16.8274C8.62596 15.7483 10.3526 15.7483 11.4317 16.7555C12.5109 17.7626 12.5109 19.4893 11.5037 20.5684L7.61876 25.9641L12.295 25.9641" stroke="#535353" stroke-width="2" stroke-miterlimit="10" stroke-linecap="round" stroke-linejoin="round"/>
</svg>
