<svg width="42" height="42" viewBox="0 0 42 42" fill="none" xmlns="http://www.w3.org/2000/svg">
<path d="M35.0255 10.011L29.9254 2.97801C28.9053 1.58607 26.7924 1.21977 25.3352 2.24541L23.5137 3.63735M27.8853 10.011L22.7851 2.97801C21.7651 1.58607 19.6521 1.21977 18.1949 2.24541L7.70314 10.011M29.9254 25.3956H27.8853M23.878 25.3956C23.878 22.0256 26.6467 19.2418 29.9982 19.2418H40.3443V13.0146C40.3443 11.6227 39.2514 10.5238 37.8671 10.5238H4.35159C2.82153 10.5238 1.72864 11.6227 1.72864 13.0146V37.7033C1.72864 39.0952 2.82153 40.1941 4.20587 40.1941H37.7214C39.1057 40.1941 40.1986 39.0952 40.1986 37.7033V31.4762H29.9982C26.6467 31.5494 23.878 28.7656 23.878 25.3956Z" stroke="#535353" stroke-width="2" stroke-miterlimit="10" stroke-linecap="round" stroke-linejoin="round"/>
</svg>
