<svg width="53" height="35" viewBox="0 0 53 35" fill="none" xmlns="http://www.w3.org/2000/svg">
<path d="M32.1991 15.8355H7.64899M29.9341 13.0131H29.1304M40.6017 29.5131H37.2407M37.2407 29.5131V15.6184H47.543L51.2693 21.842V29.5131H48.5659M37.2407 29.5131V1.72363H1.73065V29.5131H7.13753M37.2407 29.5131L31.6146 29.5131M23.212 29.5131H16.2708M27.8152 18.5855H11.6676C9.25644 18.5855 7.28366 16.6315 7.28366 14.2434V7.94733H32.2722V14.2434C32.1991 16.6315 30.2264 18.5855 27.8152 18.5855ZM47.9083 29.6578C47.9083 31.6562 46.2727 33.2763 44.255 33.2763C42.2373 33.2763 40.6017 31.6562 40.6017 29.6578C40.6017 27.6594 42.2373 26.0394 44.255 26.0394C46.2727 26.0394 47.9083 27.6594 47.9083 29.6578ZM31.6146 29.6578C31.6146 31.6562 29.979 33.2763 27.9613 33.2763C25.9437 33.2763 24.308 31.6562 24.308 29.6578C24.308 27.6594 25.9437 26.0394 27.9613 26.0394C29.979 26.0394 31.6146 27.6594 31.6146 29.6578ZM16.2708 29.6578C16.2708 31.6562 14.6351 33.2763 12.6175 33.2763C10.5998 33.2763 8.96418 31.6562 8.96418 29.6578C8.96418 27.6594 10.5998 26.0394 12.6175 26.0394C14.6351 26.0394 16.2708 27.6594 16.2708 29.6578Z" stroke="#535353" stroke-width="2" stroke-miterlimit="10" stroke-linecap="round" stroke-linejoin="round"/>
</svg>
