<?xml version="1.0" standalone="no"?>
<!DOCTYPE svg PUBLIC "-//W3C//DTD SVG 20010904//EN"
 "http://www.w3.org/TR/2001/REC-SVG-20010904/DTD/svg10.dtd">
<svg version="1.0" xmlns="http://www.w3.org/2000/svg"
 width="109.000000pt" height="109.000000pt" viewBox="0 0 109.000000 109.000000"
 preserveAspectRatio="xMidYMid meet">
<metadata>
Created by potrace 1.11, written by Peter Selinger 2001-2013
</metadata>
<g transform="translate(0.000000,109.000000) scale(0.100000,-0.100000)"
fill="#000000" stroke="none">
<path d="M712 1029 c-214 -20 -414 -135 -569 -324 -38 -47 -93 -143 -93 -163
0 -5 28 -18 63 -30 34 -11 115 -39 181 -62 65 -22 119 -40 121 -38 1 2 7 42
14 91 34 247 131 382 358 497 88 45 87 45 -75 29z"/>
<path d="M779 947 c-52 -45 -118 -102 -147 -125 -28 -24 -52 -47 -52 -51 0 -4
24 -24 54 -45 66 -45 154 -136 196 -202 60 -96 90 -251 72 -387 -5 -37 -6 -70
-2 -72 11 -7 97 182 117 255 13 48 18 103 18 210 0 168 -18 248 -86 386 -63
129 -59 128 -170 31z"/>
<path d="M30 525 c0 -23 120 -182 181 -239 89 -84 154 -126 264 -171 110 -44
212 -65 320 -65 76 0 85 2 85 18 0 10 -16 98 -35 195 -19 97 -35 178 -35 181
0 3 -30 -8 -67 -25 -242 -109 -452 -84 -665 77 -27 20 -48 33 -48 29z"/>
</g>
</svg>
